<svg width="32" height="32" viewBox="0 0 32 32" fill="none" xmlns="http://www.w3.org/2000/svg">
<g clip-path="url(#clip0_7007_227)">
<path d="M5.33333 24V0H4C1.79067 0 0 1.79067 0 4V25.02C0.732 24.3613 1.68267 23.9987 2.66667 24H5.33333ZM16.0627 16H20V14.6667H26.6667V2.66667C26.6667 1.19333 25.4733 0 24 0H8V24H13.4613L16.0627 16ZM13.5227 26.6667H2.66667C1.19333 26.6667 0 27.86 0 29.3333C0 30.8067 1.19333 32 2.66667 32H16V29.8947C14.8027 29.184 13.8973 28.0347 13.5227 26.6667ZM16 25.3333V24.8853L18 18.6667H22.6667V17.3333H25.3333V18.6667H30L32 24.8853V25.3333C32 26.8053 30.8067 28 29.3333 28C27.86 28 26.6667 26.8053 26.6667 25.3333V24.8853L27.7893 21.3333H25.3333V29.3333H29.3333V32H18.6667V29.3333H22.6667V21.3333H20.2107L21.3333 24.8853V25.3333C21.3333 26.8053 20.14 28 18.6667 28C17.1933 28 16 26.8053 16 25.3333Z" fill="#263238"/>
</g>
<defs>
<clipPath id="clip0_7007_227">
<rect width="32" height="32" fill="white"/>
</clipPath>
</defs>
</svg>
