<svg width="32" height="32" viewBox="0 0 32 32" fill="none" xmlns="http://www.w3.org/2000/svg">
<g clip-path="url(#clip0_7007_579)">
<path d="M21.0428 31.1974C20.0428 32.2387 18.3868 32.2707 17.3455 31.2707C17.2908 31.2173 15.9561 29.388 15.7188 29.052L13.9495 30.7947C13.1775 31.568 12.1415 31.996 11.0388 31.996C9.93614 31.996 8.90014 31.5667 8.12147 30.7867L6.19081 28.856C7.44147 27.9747 8.55081 27.1907 8.57481 27.1667C9.57614 26.1253 9.67747 24.6267 8.32947 23.3053C8.27481 23.248 8.38947 23.3573 8.32947 23.3053C7.23881 22.36 5.58681 22.4774 4.64147 23.568C4.49881 23.7374 3.84147 24.684 3.10014 25.764L1.21081 23.8747C-0.398526 22.2653 -0.398526 19.648 1.21081 18.04L2.67614 16.5973C2.05881 16.1507 0.774808 15.212 0.730808 15.1667C-0.269192 14.1253 -0.237192 12.4707 0.804141 11.4693C2.01214 10.2613 3.71881 10.4773 4.66547 11.568C4.94414 11.8973 5.60814 12.864 5.95481 13.3707L8.74014 10.628L13.4428 15.3307C12.8775 15.7373 11.4441 16.784 11.3975 16.8333C10.3975 17.8747 10.5148 19.616 11.5561 20.616C12.6468 21.5613 14.3855 21.5227 15.3308 20.4307C15.6228 20.084 16.3401 19.0373 16.6695 18.5573L21.4868 23.3747L18.9241 25.8974C19.2895 26.148 20.5561 27.0093 20.9441 27.336C22.0348 28.2814 22.2375 30.048 21.0428 31.1974ZM31.0975 16.6693C30.7921 16.412 29.9401 15.8227 29.4148 15.4613L30.8295 13.916C32.3895 12.3573 32.3895 9.81868 30.8295 8.25868L28.7935 6.22135C29.4535 5.76935 30.7868 4.92401 31.0975 4.66268C32.1881 3.71735 32.3068 2.06535 31.3601 0.974679C30.2868 -0.279988 28.5401 -0.271988 27.4988 0.729345C27.4535 0.773345 26.1641 2.35201 25.6455 3.07468L23.7388 1.16801C22.1775 -0.390655 19.6401 -0.389322 18.0815 1.16801L17.0161 2.23335C18.2415 3.07201 19.3921 3.86801 19.5801 4.02668C20.6708 4.97201 20.7895 6.62401 19.8428 7.71468C19.7908 7.77468 19.9001 7.66001 19.8428 7.71468C18.5215 9.06268 17.0228 8.96135 15.9815 7.96001C15.9535 7.93335 15.0161 6.60401 14.0361 5.21335L10.6308 8.74935L23.3855 21.504L23.3775 21.496L26.1308 18.744C26.5961 19.3867 27.4548 20.5613 27.4988 20.6027C28.5401 21.6027 30.0161 21.62 31.3601 20.3573C32.3055 19.2667 32.1881 17.6147 31.0975 16.6693Z" fill="#263238"/>
</g>
<defs>
<clipPath id="clip0_7007_579">
<rect width="32" height="32" fill="white"/>
</clipPath>
</defs>
</svg>
