<svg width="32" height="32" viewBox="0 0 32 32" fill="none" xmlns="http://www.w3.org/2000/svg">
<g clip-path="url(#clip0_7007_615)">
<path d="M24.7745 2.85341L16.4212 0.0680769C16.1477 -0.0230178 15.852 -0.0230178 15.5785 0.0680769L7.22517 2.85341C5.89705 3.29459 4.74173 4.14309 3.92336 5.27836C3.105 6.41363 2.66522 7.77793 2.66651 9.17741V16.0001C2.66651 26.0841 14.9332 31.6534 15.4585 31.8854C15.6289 31.9611 15.8134 32.0002 15.9998 32.0002C16.1863 32.0002 16.3707 31.9611 16.5412 31.8854C17.0665 31.6534 29.3332 26.0841 29.3332 16.0001V9.17741C29.3345 7.77793 28.8947 6.41363 28.0763 5.27836C27.258 4.14309 26.1026 3.29459 24.7745 2.85341ZM22.2905 12.9561L16.5945 18.6521C16.3614 18.8867 16.084 19.0727 15.7785 19.1993C15.4729 19.3259 15.1452 19.3905 14.8145 19.3894H14.7705C14.433 19.3842 14.1001 19.3107 13.7919 19.1732C13.4836 19.0357 13.2065 18.8371 12.9772 18.5894L9.90251 15.3894C9.76935 15.2659 9.66284 15.1164 9.58951 14.9502C9.51618 14.7841 9.47758 14.6046 9.47608 14.423C9.47458 14.2414 9.51021 14.0613 9.58078 13.894C9.65135 13.7266 9.75537 13.5754 9.88647 13.4497C10.0176 13.3239 10.173 13.2263 10.3431 13.1628C10.5133 13.0993 10.6947 13.0712 10.8761 13.0803C11.0575 13.0894 11.2352 13.1355 11.3981 13.2157C11.5611 13.2959 11.706 13.4085 11.8238 13.5467L14.8158 16.6667L20.3998 11.0667C20.6513 10.8239 20.9881 10.6895 21.3377 10.6925C21.6873 10.6956 22.0217 10.8358 22.2689 11.083C22.5161 11.3302 22.6564 11.6646 22.6594 12.0142C22.6624 12.3638 22.5281 12.7006 22.2852 12.9521L22.2905 12.9561Z" fill="#263238"/>
</g>
<defs>
<clipPath id="clip0_7007_615">
<rect width="32" height="32" fill="white"/>
</clipPath>
</defs>
</svg>
