<svg width="32" height="32" viewBox="0 0 32 32" fill="none" xmlns="http://www.w3.org/2000/svg">
<g clip-path="url(#clip0_7007_669)">
<path d="M16 24V22C16 20.1613 17.4947 18.6667 19.3333 18.6667H20V18C20 16.8973 20.8973 16 22 16H26C27.1027 16 28 16.8973 28 18V18.6667H28.6667C30.5053 18.6667 32 20.1613 32 22V24H16ZM25.3333 26.6667V28H22.6667V26.6667H16V32H32V26.6667H25.3333ZM13.3333 32H0V4C0 1.79467 1.79467 0 4 0H17.3333C19.5387 0 21.3333 1.79467 21.3333 4V13.384C19.6773 13.6227 18.2987 14.7293 17.6813 16.232C15.1733 16.9507 13.3333 19.264 13.3333 22V32ZM12 9.33333H16V6.66667H12V9.33333ZM12 14.6667H16V12H12V14.6667ZM9.33333 22.6667H5.33333V25.3333H9.33333V22.6667ZM9.33333 17.3333H5.33333V20H9.33333V17.3333ZM9.33333 12H5.33333V14.6667H9.33333V12ZM9.33333 6.66667H5.33333V9.33333H9.33333V6.66667Z" fill="#263238"/>
</g>
<defs>
<clipPath id="clip0_7007_669">
<rect width="32" height="32" fill="white"/>
</clipPath>
</defs>
</svg>
